<svg xmlns="http://www.w3.org/2000/svg" width="62.842" height="147.996" viewBox="0 0 62.842 147.996">
    <path d="M0,6.585V19.778l5.611,3.228L0,26.233v6.52l5.762,3.336v-6.52l5.611-3.228.043.022.043-.022,5.611,3.228V42.761l-5.654,3.249h0L5.762,42.761,0,39.425v6.65l5.654,3.249L0,52.6V65.788l5.654,3.271L0,72.308v6.52l5.762,3.336v-6.52L11.416,72.4l5.654,3.249V88.837l5.762,3.336V72.308l-5.654-3.271,5.654-3.271v-6.52L28.464,62.5h.022l5.632,3.249,5.762,3.336,5.654,3.249v6.52L39.9,82.1h-.043L34.226,78.85l-5.762,3.336L34.1,85.436h.022l5.74,3.314H39.9L45.534,92v6.412L39.88,95.14l-5.762,3.336-5.654,3.271v13.171L39.88,121.5,51.3,114.918V108.4l5.654,3.249,5.762-3.336L51.3,101.726V88.663l-5.632-3.249L51.3,82.165V68.972L45.642,65.7l5.632-3.249H51.3V42.675L39.88,36.089,28.464,42.675v6.52l5.762,3.336v-6.52l5.654-3.249,5.654,3.249V59.2L39.88,62.452,34.226,59.2l-5.74-3.314h-.022l-5.632-3.249h0L17.178,49.39l5.632-3.249h0V26.276L17.2,23.049l5.611-3.228V6.585L11.416,0Zm45.534,98.52v6.52L39.88,114.9l-5.654-3.271v-6.52l5.654-3.271h0ZM11.416,52.661,17.07,55.91v6.52L11.416,65.7,5.762,62.431V55.91l5.654-3.249ZM17.07,9.921v6.52l-5.611,3.228-.043-.022-.043.022L5.762,16.442V9.921L11.416,6.65Z"
          fill="#000000"/>
    <path d="M263.5,376.1l2.881,1.668,2.881-1.668v-3.336l-2.881-1.668-2.881,1.668Z"
          transform="translate(-206.42 -290.712)" fill="#000000"/>
    <path d="M239.7,386.5l-2.9,1.668V391.5l2.9,1.646,2.881-1.646v-3.336Z" transform="translate(-185.504 -302.776)"
          fill="#000000"/>
    <path d="M110.562,570.468l-2.881-1.668-2.881,1.668V573.8l2.881,1.668,2.881-1.668Z"
          transform="translate(-82.098 -445.585)" fill="#000000"/>
    <path d="M81.081,584.2,78.2,585.868V589.2l2.881,1.668,2.881-1.668v-3.336Z" transform="translate(-61.26 -457.649)"
          fill="#000000"/>
    <path d="M142.816,561.5,131.4,568.085v13.192l11.416,6.585,11.416-6.585V568.085Zm5.654,16.442-5.654,3.271-5.654-3.271v-6.52l5.654-3.271,5.654,3.271Z"
          transform="translate(-102.936 -439.867)" fill="#000000"/>
</svg>